<?xml version="1.0" encoding="iso-8859-1"?>
<!-- Generator: Adobe Illustrator 19.0.0, SVG Export Plug-In . SVG Version: 6.00 Build 0)  -->
<svg version="1.1" id="Capa_1" xmlns="http://www.w3.org/2000/svg" xmlns:xlink="http://www.w3.org/1999/xlink" x="0px" y="0px"
	 viewBox="0 0 512 512" style="enable-background:new 0 0 512 512;" xml:space="preserve">
<path style="fill:#F8B816;" d="M329.155,149.852v-27.367c0-2.836-2.318-5.157-5.151-5.157H219.363c-2.833,0-5.151,2.321-5.151,5.157
	v27.367c0,2.836,2.318,5.157,5.151,5.157c-2.833,0-5.151,2.321-5.151,5.157v27.368c0,2.836,2.318,5.157,5.151,5.157
	c-2.833,0-5.151,2.321-5.151,5.157v27.368c0,2.836,2.318,5.157,5.151,5.157c-2.833,0-5.151,2.32-5.151,5.157v27.367
	c0,2.836,2.318,5.157,5.151,5.157c-2.833,0-5.151,2.321-5.151,5.157v27.368c0,2.836,2.318,5.157,5.151,5.157h104.641
	c2.833,0,5.151-2.32,5.151-5.157v-27.368c0-2.836-2.318-5.157-5.151-5.157c2.833,0,5.151-2.32,5.151-5.157v-27.367
	c0-2.836-2.318-5.157-5.151-5.157c2.833,0,5.151-2.321,5.151-5.157v-27.368c0-2.836-2.318-5.157-5.151-5.157
	c2.833,0,5.151-2.321,5.151-5.157v-27.368c0-2.836-2.318-5.157-5.151-5.157C326.837,155.007,329.155,152.688,329.155,149.852z"/>
<path style="fill:#4B7D32;" d="M146.213,226.691h-98.22c-2.833,0-5.151,2.32-5.151,5.156v68.728c0,2.836,2.318,5.157,5.151,5.157
	h98.22V226.691z"/>
<rect x="146.21" y="226.689" style="fill:#FED0A5;" width="74.79" height="79.04"/>
<rect x="146.21" y="226.689" style="fill:#EBB272;" width="35.711" height="79.04"/>
<g>
	<path style="fill:#60A041;" d="M102.421,271.439H42.843v15h59.578c4.142,0,7.5-3.358,7.5-7.5
		C109.921,274.796,106.563,271.439,102.421,271.439z"/>
	<path style="fill:#60A041;" d="M82.995,245.985H42.843v15h40.152c4.142,0,7.5-3.358,7.5-7.5
		C90.495,249.343,87.137,245.985,82.995,245.985z"/>
</g>
<path style="fill:#F8B816;" d="M329.155,300.577c0,2.836-2.318,5.157-5.151,5.157H219.363c-2.833,0-5.151-2.32-5.151-5.157v-27.368
	c0-2.836,2.318-5.157,5.151-5.157h104.641c2.833,0,5.151,2.321,5.151,5.157V300.577z"/>
<path style="fill:#FECF05;" d="M329.155,262.895c0,2.836-2.318,5.157-5.151,5.157H219.363c-2.833,0-5.151-2.32-5.151-5.157v-27.367
	c0-2.836,2.318-5.157,5.151-5.157h104.641c2.833,0,5.151,2.32,5.151,5.157V262.895z"/>
<path style="fill:#F8B816;" d="M329.155,225.214c0,2.836-2.318,5.157-5.151,5.157H219.363c-2.833,0-5.151-2.321-5.151-5.157v-27.368
	c0-2.836,2.318-5.157,5.151-5.157h104.641c2.833,0,5.151,2.321,5.151,5.157V225.214z"/>
<path style="fill:#FECF05;" d="M329.155,187.533c0,2.836-2.318,5.157-5.151,5.157H219.363c-2.833,0-5.151-2.321-5.151-5.157v-27.368
	c0-2.836,2.318-5.157,5.151-5.157h104.641c2.833,0,5.151,2.321,5.151,5.157V187.533z"/>
<path style="fill:#F8B816;" d="M329.155,149.852c0,2.836-2.318,5.157-5.151,5.157H219.363c-2.833,0-5.151-2.32-5.151-5.157v-27.367
	c0-2.836,2.318-5.157,5.151-5.157h104.641c2.833,0,5.151,2.321,5.151,5.157V149.852z"/>
<path style="opacity:0.1;enable-background:new    ;" d="M227,300.577v-27.368c0-2.836,2.318-5.157,5.151-5.157
	c-2.833,0-5.151-2.32-5.151-5.157v-27.367c0-2.836,2.318-5.157,5.151-5.157c-2.833,0-5.151-2.321-5.151-5.157v-27.368
	c0-2.836,2.318-5.157,5.151-5.157c-2.833,0-5.151-2.321-5.151-5.157v-27.368c0-2.836,2.318-5.157,5.151-5.157
	c-2.833,0-5.151-2.32-5.151-5.157v-27.367c0-2.836,2.318-5.157,5.151-5.157h-12.788c-2.833,0-5.151,2.321-5.151,5.157v27.367
	c0,2.836,2.318,5.157,5.151,5.157c-2.833,0-5.151,2.321-5.151,5.157v27.368c0,2.836,2.318,5.157,5.151,5.157
	c-2.833,0-5.151,2.321-5.151,5.157v27.368c0,2.836,2.318,5.157,5.151,5.157c-2.833,0-5.151,2.32-5.151,5.157v27.367
	c0,2.836,2.318,5.157,5.151,5.157c-2.833,0-5.151,2.321-5.151,5.157v27.368c0,2.836,2.318,5.157,5.151,5.157h12.788
	C229.318,305.733,227,303.413,227,300.577z"/>
<path style="fill:#F8B816;" d="M429.469,197.462v-27.368c0-2.836-2.318-5.157-5.151-5.157H319.676c-2.833,0-5.151,2.321-5.151,5.157
	v27.368c0,2.836,2.318,5.157,5.151,5.157c-2.833,0-5.151,2.32-5.151,5.157v27.367c0,2.836,2.318,5.157,5.151,5.157
	c-2.833,0-5.151,2.32-5.151,5.156v27.368c0,2.836,2.318,5.157,5.151,5.157c-2.833,0-5.151,2.321-5.151,5.157v27.368
	c0,2.836,2.318,5.157,5.151,5.157c-2.833,0-5.151,2.32-5.151,5.157v27.368c0,2.836,2.318,5.157,5.151,5.157
	c-2.833,0-5.151,2.32-5.151,5.157v20.459h114.943V358.5c0-2.836-2.318-5.157-5.151-5.157c2.833,0,5.151-2.321,5.151-5.157v-27.368
	c0-2.836-2.318-5.157-5.151-5.157c2.833,0,5.151-2.32,5.151-5.157v-27.368c0-2.836-2.318-5.157-5.151-5.157
	c2.833,0,5.151-2.32,5.151-5.157v-27.368c0-2.836-2.318-5.156-5.151-5.156c2.833,0,5.151-2.321,5.151-5.157v-27.367
	c0-2.836-2.318-5.157-5.151-5.157C427.151,202.618,429.469,200.298,429.469,197.462z"/>
<path style="fill:#FECF05;" d="M429.469,378.959V358.5c0-2.836-2.318-5.157-5.151-5.157H319.676c-2.833,0-5.151,2.32-5.151,5.157
	v20.459L429.469,378.959L429.469,378.959z"/>
<path style="fill:#F8B816;" d="M429.469,348.186c0,2.836-2.318,5.157-5.151,5.157H319.676c-2.833,0-5.151-2.321-5.151-5.157v-27.368
	c0-2.836,2.318-5.157,5.151-5.157h104.642c2.833,0,5.151,2.32,5.151,5.157V348.186z"/>
<path style="fill:#FECF05;" d="M429.469,310.505c0,2.836-2.318,5.157-5.151,5.157H319.676c-2.833,0-5.151-2.32-5.151-5.157v-27.368
	c0-2.836,2.318-5.157,5.151-5.157h104.642c2.833,0,5.151,2.321,5.151,5.157V310.505z"/>
<path style="fill:#F8B816;" d="M429.469,272.824c0,2.836-2.318,5.157-5.151,5.157H319.676c-2.833,0-5.151-2.32-5.151-5.157v-27.368
	c0-2.836,2.318-5.156,5.151-5.156h104.642c2.833,0,5.151,2.32,5.151,5.156V272.824z"/>
<path style="fill:#FECF05;" d="M429.469,235.143c0,2.836-2.318,5.157-5.151,5.157H319.676c-2.833,0-5.151-2.321-5.151-5.157v-27.367
	c0-2.836,2.318-5.157,5.151-5.157h104.642c2.833,0,5.151,2.32,5.151,5.157V235.143z"/>
<path style="fill:#F8B816;" d="M429.469,197.462c0,2.836-2.318,5.157-5.151,5.157H319.676c-2.833,0-5.151-2.321-5.151-5.157v-27.368
	c0-2.836,2.318-5.157,5.151-5.157h104.642c2.833,0,5.151,2.321,5.151,5.157V197.462z"/>
<path style="opacity:0.1;enable-background:new    ;" d="M332.151,353.342c-2.833,0-5.151-2.321-5.151-5.157v-27.368
	c0-2.836,2.318-5.157,5.151-5.157c-2.833,0-5.151-2.32-5.151-5.157v-27.368c0-2.836,2.318-5.157,5.151-5.157
	c-2.833,0-5.151-2.32-5.151-5.157v-27.368c0-2.836,2.318-5.156,5.151-5.156c-2.833,0-5.151-2.321-5.151-5.157v-27.367
	c0-2.836,2.318-5.157,5.151-5.157c-2.833,0-5.151-2.321-5.151-5.157v-27.368c0-2.836,2.318-5.157,5.151-5.157h-12.475
	c-2.833,0-5.151,2.321-5.151,5.157v27.368c0,2.836,2.318,5.157,5.151,5.157c-2.833,0-5.151,2.32-5.151,5.157v27.367
	c0,2.836,2.318,5.157,5.151,5.157c-2.833,0-5.151,2.32-5.151,5.156v27.368c0,2.836,2.318,5.157,5.151,5.157
	c-2.833,0-5.151,2.321-5.151,5.157v27.368c0,2.836,2.318,5.157,5.151,5.157c-2.833,0-5.151,2.32-5.151,5.157v27.368
	c0,2.836,2.318,5.157,5.151,5.157c-2.833,0-5.151,2.32-5.151,5.157v20.459H327V358.5C327,355.664,329.318,353.342,332.151,353.342z"
	/>
<g>
	<path style="fill:#F8B816;" d="M365.959,100.504c-0.878,0-1.67-0.53-2.007-1.342c-4.535-10.968-7.878-14.317-18.827-18.861
		c-0.811-0.337-1.341-1.13-1.341-2.009c0-0.88,0.53-1.673,1.341-2.01c10.949-4.544,14.291-7.893,18.827-18.86
		c0.337-0.813,1.129-1.342,2.007-1.342s1.67,0.53,2.006,1.342c4.535,10.968,7.879,14.316,18.828,18.86
		c0.81,0.336,1.34,1.13,1.34,2.01c0,0.879-0.529,1.672-1.34,2.009c-10.95,4.544-14.293,7.892-18.828,18.861
		C367.629,99.974,366.837,100.504,365.959,100.504z"/>
	<path style="fill:#F8B816;" d="M475.451,316.945c-0.787,0-1.496-0.475-1.797-1.203c-4.062-9.822-7.055-12.821-16.861-16.89
		c-0.727-0.302-1.201-1.013-1.201-1.8s0.475-1.498,1.201-1.8c9.806-4.069,12.799-7.067,16.861-16.89
		c0.301-0.727,1.01-1.202,1.797-1.202c0.786,0,1.495,0.475,1.796,1.202c4.062,9.823,7.055,12.821,16.862,16.89
		c0.727,0.302,1.2,1.013,1.2,1.8s-0.474,1.498-1.2,1.8c-9.807,4.069-12.8,7.068-16.862,16.89
		C476.946,316.47,476.236,316.945,475.451,316.945z"/>
</g>
<path style="fill:#FECF05;" d="M139.297,195.934c-0.964,0-1.833-0.583-2.203-1.475c-4.982-12.045-8.652-15.723-20.678-20.714
	c-0.891-0.369-1.473-1.241-1.473-2.207s0.581-1.837,1.473-2.207c12.026-4.991,15.697-8.668,20.678-20.714
	c0.37-0.893,1.239-1.474,2.203-1.474s1.834,0.581,2.203,1.474c4.981,12.046,8.653,15.723,20.678,20.714
	c0.891,0.37,1.473,1.241,1.473,2.207s-0.582,1.838-1.473,2.207c-12.025,4.991-15.697,8.669-20.678,20.714
	C141.131,195.352,140.261,195.934,139.297,195.934z"/>
<path style="fill:#60A041;" d="M506.849,376.878h-98.22v2.081h-2.199v76.96h100.419c2.833,0,5.151-2.32,5.151-5.157v-68.728
	C512,379.199,509.682,376.878,506.849,376.878z"/>
<rect x="314.52" y="376.88" style="fill:#EBB272;" width="58.39" height="79.04"/>
<rect x="372.92" y="376.88" style="fill:#FED0A5;" width="35.711" height="79.04"/>
<g>
	<path style="fill:#4B7D32;" d="M512,396.174h-59.579c-4.142,0-7.5,3.358-7.5,7.5s3.358,7.5,7.5,7.5H512V396.174z"/>
	<path style="fill:#4B7D32;" d="M512,421.625h-40.153c-4.142,0-7.5,3.358-7.5,7.5s3.358,7.5,7.5,7.5H512V421.625z"/>
</g>
<path style="fill:#89C947;" d="M347.171,450.763c0,2.836-2.318,5.157-5.151,5.157H5.151C2.318,455.92,0,453.6,0,450.763V308.574
	c0-2.836,2.318-5.157,5.151-5.157H342.02c2.833,0,5.151,2.32,5.151,5.157V450.763z"/>
<path style="opacity:0.1;enable-background:new    ;" d="M19.059,450.763V308.574c0-2.836,2.318-5.157,5.151-5.157H5.151
	c-2.833,0-5.151,2.32-5.151,5.157v142.189c0,2.836,2.318,5.157,5.151,5.157H24.21C21.376,455.919,19.059,453.599,19.059,450.763z"/>
<path style="fill:#4B7D32;" d="M65.527,332.971c-2.833,0-7.025,1.365-9.316,3.034l-22.525,16.411
	c-2.291,1.669-4.165,5.354-4.165,8.191v38.122c0,2.836,1.874,6.522,4.165,8.191l22.525,16.411c2.291,1.668,6.483,3.034,9.316,3.034
	h212.4c2.833,0,7.025-1.366,9.316-3.035l26.242-19.119c2.291-1.669,4.165-5.355,4.165-8.191v-32.703
	c0-2.836-1.874-6.522-4.165-8.191l-26.242-19.119c-2.291-1.669-6.483-3.034-9.316-3.034h-212.4V332.971z"/>
<ellipse style="fill:#89C947;" cx="173.59" cy="379.67" rx="43.692" ry="43.741"/>
<path style="opacity:0.1;enable-background:new    ;" d="M142.816,379.668c0-21.936,16.129-40.098,37.162-43.253
	c-2.086-0.315-4.219-0.488-6.393-0.488c-24.13,0-43.691,19.584-43.691,43.741c0,24.158,19.561,43.741,43.691,43.741
	c2.175,0,4.307-0.173,6.394-0.488C158.946,419.766,142.816,401.604,142.816,379.668z"/>
<g>
	<ellipse style="fill:#60A041;" cx="76.75" cy="379.67" rx="16.532" ry="16.551"/>
	<ellipse style="fill:#60A041;" cx="270.42" cy="379.67" rx="16.532" ry="16.551"/>
</g>
<g>
</g>
<g>
</g>
<g>
</g>
<g>
</g>
<g>
</g>
<g>
</g>
<g>
</g>
<g>
</g>
<g>
</g>
<g>
</g>
<g>
</g>
<g>
</g>
<g>
</g>
<g>
</g>
<g>
</g>
</svg>
